<?xml version="1.0" encoding="utf-8"?>
<!-- Designed by Vexels.com - 2019 All Rights Reserved - https://vexels.com/terms-and-conditions/  -->
<svg version="1.1" id="Layer_1" xmlns="http://www.w3.org/2000/svg" xmlns:xlink="http://www.w3.org/1999/xlink" x="0px" y="0px"
	 viewBox="0 0 500 500" enable-background="new 0 0 500 500" xml:space="preserve">
<g>
	<polygon fill="#807675" points="429.343,262.176 426.068,260.285 422.614,262.292 411.382,257.381 410.756,36.424 406.584,34 
		71.144,227.666 71.931,454.273 75.958,456.511 75.958,456.698 76.122,456.603 92.82,465.884 92.82,465.964 92.89,465.923 
		92.964,465.964 92.963,465.881 429.319,270.412 	"/>
	<g>
		<polygon fill="#4A5A84" points="395.761,52.493 396.355,262.348 82.896,444.193 81.833,232.662 		"/>
	</g>
	<g>
		<path fill="#DCD6DA" d="M411.072,257.603l-0.626-220.957L75.006,230.312l0,0.074l0.177,0.103l0.629,221.898l3.847,2.217
			l0.04-0.023l9.547,5.474l0.178-0.104l0.011-3.714l333.11-193.583L411.072,257.603z M82.878,447.93l-0.61-214.968L399.973,49.535
			l0.607,214.153L82.878,447.93z"/>
		<polygon fill="#DCD6DA" points="92.746,458.106 92.782,458.127 92.829,466 429.009,270.633 429.032,262.678 		"/>
	</g>
	<g enable-background="new    ">
		<path fill="#EAE4A4" d="M255.034,353.306c-0.664-0.384-1.266-0.419-1.701-0.167l-32.211,18.719
			c0.435-0.253,1.036-0.217,1.701,0.167c1.321,0.762,2.387,2.609,2.383,4.127c-0.002,0.754-0.268,1.284-0.697,1.533l32.211-18.719
			c0.429-0.249,0.695-0.78,0.697-1.533C257.421,355.916,256.354,354.069,255.034,353.306z"/>
		<g>
			<path fill="#D1CA97" d="M222.822,372.026c1.321,0.762,2.387,2.61,2.383,4.127c-0.004,1.517-1.078,2.129-2.398,1.367
				c-1.321-0.762-2.387-2.61-2.383-4.127C220.428,371.875,221.502,371.263,222.822,372.026z"/>
		</g>
	</g>
	<g>
		<g enable-background="new    ">
			<path fill="#B5D8B6" d="M317.555,317.19c-0.664-0.384-1.267-0.419-1.701-0.167l-32.211,18.719
				c0.435-0.253,1.036-0.217,1.701,0.167c1.321,0.762,2.387,2.609,2.383,4.127c-0.002,0.754-0.268,1.284-0.697,1.534l32.211-18.719
				c0.429-0.249,0.695-0.78,0.697-1.534C319.942,319.8,318.875,317.953,317.555,317.19z"/>
			<g>
				<path fill="#89B87A" d="M285.343,335.909c1.321,0.762,2.387,2.61,2.383,4.127s-1.078,2.129-2.398,1.367
					c-1.321-0.762-2.387-2.61-2.383-4.127C282.949,335.759,284.023,335.147,285.343,335.909z"/>
			</g>
		</g>
	</g>
	<g>
		<path fill="#F9F3E4" d="M149.179,366.284c1.769-1.022,3.546-2.098,5.217-3.114c1.66-1.001,3.223-1.954,4.572-2.733
			c0.473-0.273,0.92-0.525,1.335-0.75c7.467-4.024,14.94-8.144,22.415-12.46c2.349-1.356,4.7-2.733,7.049-4.131
			c15.401-9.167,30.685-18.807,46.041-27.673c4.901-2.83,9.811-5.581,14.733-8.213c18.227-9.738,36.52-19.722,54.815-30.285
			c19.552-11.288,39.104-23.237,58.549-36.239l-0.695-0.404c-2.526-0.25-7.234,2.122-11.99,4.867
			c-1.66,0.958-3.326,1.963-4.907,2.916c-1.529,0.93-2.976,1.805-4.259,2.546c-0.714,0.412-1.378,0.783-1.976,1.097
			c-9.826,5.209-19.64,10.629-29.465,16.171c-3.582,2.02-7.163,4.064-10.745,6.133c-15.797,9.12-31.602,18.692-47.371,28.494
			c-6.843,4.259-13.684,8.323-20.525,12.272c-9.564,5.522-19.127,10.82-28.689,16.113c-9.66,5.35-19.321,10.699-28.981,16.277
			c-12.613,7.282-25.225,14.954-37.826,23.526l0.695,0.404C139.667,371.404,144.4,369.043,149.179,366.284z"/>
		<path fill="#F9F3E4" d="M194.312,326.774c0.102-0.059,0.179-0.168,0.228-0.337c1.089-2.92-5.482-6.824-5.264-9.762
			c0.152-1.968,6.764-15.383,4.779-15.965c0.032,0.009,0.067,0.015,0.095,0.031l-0.695-0.404c-0.098-0.057-0.223-0.073-0.378-0.044
			c-0.79,2.178-2.751,8.292-4.273,11.32c0.204-2.964,0.149-7.125-1.324-7.915c0.012,0.006,0.026,0.005,0.038,0.011l-0.695-0.404
			c-0.148-0.086-0.31-0.137-0.487-0.149c-0.845-0.053-1.523,0.103-2.066,0.417c-3.009,1.737-1.86,8.305-1.863,10.899
			c0.001,4.74-0.762,11.603,0.51,15.334c0.399,1.188,0.8,1.828,1.19,2.055l0.695,0.404c-0.001-0.001-0.002-0.002-0.003-0.002
			c0.231,0.136,0.459,0.126,0.68-0.001c1.376-0.795,2.491-6.155,2.668-9.207c0.018-0.622,0.036-1.244,0.054-1.866
			c1.123,1.497,3.311,4.27,4.627,5.035l0.695,0.404c-0.034-0.02-0.072-0.049-0.107-0.072
			C193.789,326.793,194.104,326.894,194.312,326.774z"/>
		<path fill="#F9F3E4" d="M164.338,344.486c2.342-4.726-3.581-21.694-5.513-23.593c0.003-0.002-0.024-0.025-0.095-0.08
			c-0.026-0.019-0.051-0.037-0.096-0.07c-0.226-0.164-0.31-0.221-0.313-0.219c-0.002,0.001,0.017,0.018,0.049,0.044
			c-0.136-0.084-0.262-0.133-0.391-0.192c0.098,0.044,0.192,0.076,0.293,0.135l0.098,0.057c-0.032-0.026-0.051-0.043-0.049-0.044
			l-0.348-0.202l0.348,0.202c0.001,0,0.003,0.001,0.008,0.004l-0.695-0.404c-0.005-0.003-0.008-0.004-0.008-0.004h0
			c-0.002,0.001,0.018,0.018,0.044,0.039l-0.081-0.047c-0.817-0.475-1.498-0.48-2.069-0.15c-2.488,1.436-2.902,9.225-3.469,12.224
			c-0.734,3.845-4.436,15.333-3.217,18.022c0.104,0.228,0.286,0.413,0.525,0.552l0.695,0.404c-0.073-0.042-0.129-0.097-0.191-0.148
			c0.725,0.598,2.251,0.621,3.562-0.136c0.407-0.235,0.792-0.544,1.124-0.933c1.358-1.596,0.759-3.787,1.865-5.325
			c0.6-0.835,1.271-1.426,1.963-1.826c1.639-0.946,3.389-0.81,4.582-0.266c0.614,0.464,0.912,1.047,0.684,1.551L164.338,344.486z
			 M161.52,339.181l-0.695-0.404c-1.186,0.742-2.366,1.478-3.549,2.235c0.651-2.415,1.007-4.87,1.277-7.121
			c0.195-1.697,0.378-3.44,0.654-5.198c0.714,3.22,0.951,6.826,1.618,10.084L161.52,339.181L161.52,339.181z"/>
		<path fill="#F9F3E4" d="M177.676,314.239c0.039-0.022,0.076-0.053,0.112-0.094c1.451-1.619,1.103-2.562,0.142-3.069
			c0.03,0.016,0.068,0.027,0.097,0.044l-0.695-0.404c-1.296-0.753-3.896-0.619-4.551-0.241c-2.028,1.272-3.019,3.092-4.11,5.403
			c-2.775,5.88-2.996,14.85-1.785,19.305l-0.009-0.005h0c-0.003,0.002,0.011,0.064,0.02,0.137c0.02,0.055,0.036,0.112,0.038,0.114
			l0.03,0.017c0.413,1.603,1.216,2.775,2.231,3.365l0.695,0.404c-0.004-0.002-0.008-0.006-0.012-0.009
			c1.041,0.611,2.294,0.624,3.543-0.097c1.423-0.821,2.84-2.594,3.929-5.516c0.376-0.985,1.537-5.353,1.17-5.836
			c-0.026-0.036-0.056-0.049-0.086-0.062c0.006,0.002,0.013-0.005,0.019-0.001l-0.695-0.404c-0.052-0.03-0.11-0.025-0.173,0.012v0
			c-0.84,0.485-2.606,6.44-3.09,8.086c-2.175-3.705-1.793-10.571-1.575-16.053c0.2-5.183,0.738-7.071,1.402-7.454
			c0.121-0.07,0.247-0.083,0.375-0.064c0.238,0.219,0.479,0.495,0.714,0.78c0.401,0.498,0.793,1.002,1.132,1.199l0.695,0.404
			c-0.011-0.007-0.024-0.019-0.035-0.027C177.375,314.281,177.535,314.32,177.676,314.239z"/>
		<path fill="#F9F3E4" d="M138.094,359.791c0.607-0.351,1.321-0.846,2.158-1.502c5.859-4.601,7.826-10.712,3.571-12.732
			c0.126,0.06,0.262,0.114,0.377,0.181l-0.695-0.404c-0.226-0.132-0.476-0.248-0.745-0.352c0.461-0.624,1.495-1.886,1.731-2.604
			l0.004,0.002v0l0-0.001c0.001-0.001,0.011-0.033,0.026-0.068c0.01-0.028,0.017-0.055,0.02-0.068
			c1.907-5.137,1.732-10.286-0.8-11.731c0.006,0.004,0.014,0.006,0.02,0.01l-0.695-0.404c-1.165-0.677-2.833-0.564-5.033,0.706
			c-0.404,0.233-0.826,0.506-1.265,0.819c-3.777,2.703-2.728,3.677-2.803,8.273c-0.066,3.575-0.043,7.1,0.043,10.588
			c0.119,4.611-0.495,8.596,0.898,9.406l0.695,0.404c-0.074-0.043-0.14-0.1-0.204-0.161
			C135.899,360.633,136.727,360.579,138.094,359.791z M144.508,342.334L144.508,342.334c-0.006,0.02-0.006,0.022-0.008,0.029
			C144.502,342.355,144.502,342.354,144.508,342.334z M144.053,347.998l-0.002-0.001c-0.001-0.001-0.006-0.005-0.006-0.006
			C144.047,347.993,144.053,347.998,144.053,347.998z M143.586,347.699l0.371,0.215c0.002,0.002,0.003,0.003,0.005,0.005
			c-0.003-0.002-0.003-0.003-0.006-0.005L143.586,347.699C143.586,347.699,143.586,347.699,143.586,347.699z M143.337,347.576
			c0.004,0.004,0.018,0.016,0.02,0.017l0.001,0.001c1.429,1.585,0.152,5.473-2.076,7.4c0.304-2.747,0.217-5.83,0.211-8.238
			C142.129,346.999,142.739,347.279,143.337,347.576z M143.723,340.448l0.001-0.002L143.723,340.448l-0.001,0.002L143.723,340.448z
			 M143.705,340.498c-0.094,0.287-0.227,0.634-0.396,1.019C143.479,341.132,143.612,340.784,143.705,340.498L143.705,340.498z
			 M140.279,332.22c0.287-0.497,0.571-0.81,0.848-0.97c0.191-0.11,0.376-0.126,0.558-0.1c1.377,1.479,2.192,6.433,1.392,8.739
			c-0.023,0.074-0.039,0.122-0.049,0.155c-0.31,0.972-1.168,2.787-1.97,3.761C140.703,340.915,139.614,333.371,140.279,332.22z"/>
		<path fill="#F9F3E4" d="M220.439,284.954c-0.018-0.047-0.049-0.08-0.09-0.103c0.001,0.001,0.004,0,0.005,0.001l-0.695-0.404
			c-0.265-0.154-1.001,0.201-1.7,0.605c-0.585,0.338-1.145,0.71-1.379,0.845c-0.024,0.015-0.047,0.028-0.07,0.042
			c-0.25,0.142-0.892,0.45-1.719,0.875c-0.907,0.465-2.04,1.058-3.141,1.694c-2.142,1.237-4.164,2.634-4.162,3.552
			c-0.004,0.036,0.007,0.06,0.033,0.075l0.695,0.404c-0.001-0.001,0-0.002-0.001-0.003c0.275,0.173,2.303-0.899,3.237-1.172
			c0.645,1.882-0.138,8.667-0.087,10.665c0.093,3.441-0.945,11.704,1.363,13.045l0.695,0.404c-0.01-0.006-0.017-0.017-0.027-0.023
			c0.501,0.308,1.161,0.289,2.032-0.193c0.032-0.018,0.063-0.036,0.095-0.054c4.609-2.661,3.131-10.259,3.019-14.256
			c-0.112-4.081,0.363-10.053-1.223-13.009C217.973,287.436,220.884,286.118,220.439,284.954z M211.89,291.325L211.89,291.325
			L211.89,291.325c0.136,0.097,0.24,0.309,0.317,0.61C212.129,291.634,212.026,291.422,211.89,291.325z"/>
		<path fill="#F9F3E4" d="M229.33,307.377c2.016-1.164,3.961-4.062,4.915-7.662c1.473-5.533,2.51-13.685,1.375-17.901
			c-0.429-1.589-1.175-2.583-2.084-3.058c0.039,0.02,0.079,0.034,0.117,0.056l-0.695-0.404c-1.049-0.61-2.335-0.494-3.62,0.248
			c-1.993,1.15-3.976,3.819-5.082,7.616l-0.018-0.01c-0.002,0.001-0.106,0.387-0.21,0.772c-0.1,0.385-0.204,0.771-0.204,0.771
			l0.019,0.011c-1.396,5.939-1.936,14.706,0.264,18.049c0.393,0.591,0.83,1.013,1.295,1.284l0.695,0.404
			c-0.083-0.048-0.164-0.107-0.245-0.165C226.907,308.143,228.13,308.071,229.33,307.377z M229.721,292.643
			c0.085-1.281,1.127-11.959,2.55-12.78c0.083-0.048,0.16-0.071,0.236-0.087c1.723,2.919-0.179,20.263-1.097,22.931
			c-0.002,0.002-0.024,0.053-0.046,0.1c-0.011,0.04-0.025,0.077-0.03,0.09c-0.007,0.015-0.015,0.024-0.022,0.038
			C230.478,300.874,229.621,294.24,229.721,292.643z"/>
		<path fill="#F9F3E4" d="M254.174,292.878c0.229-0.101,0.45-0.213,0.664-0.337c4.309-2.488,5.373-9.316,4.762-12.886
			c-0.667-3.921-4.052-5.011-4.794-8.874c-0.532-2.786-0.458-3.758-0.119-3.954c0.094-0.054,0.213-0.036,0.34,0.007
			c0.015,0.011,0.03,0.019,0.045,0.03c0.159,0.121,0.319,0.239,0.472,0.328l0.695,0.404c-0.023-0.013-0.047-0.034-0.07-0.049
			c0.263,0.164,0.51,0.264,0.697,0.156c0.035-0.02,0.069-0.048,0.1-0.084c1.21-1.373,0.871-2.388-0.034-2.886
			c0.015,0.009,0.036,0.011,0.051,0.02l-0.695-0.404c-0.805-0.467-2.094-0.505-3.141,0.016c-0.144,0.072-0.284,0.147-0.421,0.226
			c-4.112,2.374-4.811,7.952-3.849,11.199c0.943,3.24,3.722,4.419,4.803,7.535c0.25,0.733,0.786,7.286-0.74,8.166
			c-0.174,0.101-0.377,0.12-0.608,0.056c-0.019-0.016-0.035-0.023-0.054-0.04c-0.999-0.858-1.571-2.152-1.689-3.925l-0.695-0.404
			c-2.122,2.037-1.014,3.813,0.581,4.74l0.695,0.404c-0.103-0.06-0.204-0.124-0.303-0.191
			C251.969,292.882,253.42,293.206,254.174,292.878z"/>
		<path fill="#F9F3E4" d="M272.577,259.448c0.039-0.022,0.076-0.053,0.112-0.094c1.451-1.619,1.104-2.562,0.142-3.069
			c0.03,0.016,0.068,0.027,0.097,0.044l-0.695-0.404c-1.296-0.753-3.896-0.619-4.551-0.241c-2.028,1.272-3.019,3.091-4.11,5.403
			c-2.775,5.88-2.996,14.85-1.785,19.305l-0.009-0.005h0l0,0v0c-0.003,0.002,0.011,0.064,0.02,0.137
			c0.019,0.055,0.036,0.112,0.038,0.114l0.03,0.017c0.413,1.603,1.216,2.775,2.231,3.365l0.695,0.404
			c-0.004-0.003-0.007-0.007-0.011-0.009c1.041,0.61,2.294,0.624,3.543-0.097c1.423-0.821,2.84-2.594,3.929-5.516
			c0.376-0.985,1.537-5.353,1.169-5.836c-0.026-0.036-0.056-0.049-0.085-0.062c0.006,0.002,0.013-0.005,0.019-0.001l-0.695-0.404
			c-0.052-0.03-0.11-0.025-0.173,0.012h0c-0.84,0.485-2.606,6.44-3.09,8.086c-2.175-3.705-1.793-10.571-1.575-16.053
			c0.2-5.183,0.738-7.071,1.402-7.455c0.121-0.07,0.247-0.083,0.375-0.064c0.238,0.219,0.479,0.495,0.714,0.78
			c0.401,0.498,0.793,1.002,1.131,1.199l0.695,0.404c-0.011-0.007-0.024-0.019-0.035-0.027
			C272.276,259.49,272.436,259.53,272.577,259.448z"/>
		<path fill="#F9F3E4" d="M293.512,243.678c-0.1-0.145-0.272-0.272-0.486-0.377c0.038,0.019,0.082,0.035,0.117,0.055l-0.695-0.404
			c-0.709-0.412-2.094-0.518-3.357,0.211c-0.573,0.331-1.121,0.834-1.569,1.559c-3.767,6.116,4.122,16.995-2.386,22.067
			c0.096-4.972,0.864-16.149-2.207-17.817c0.015,0.008,0.034,0.009,0.049,0.017l-0.695-0.404c-0.187-0.108-0.388-0.181-0.605-0.215
			c-0.961-0.15-1.687-0.027-2.236,0.29c-2.047,1.182-1.625,5.056-1.678,7.465c-0.072,3.803-1.306,19.38,1.263,20.874l0.695,0.404
			c-0.082-0.047-0.16-0.11-0.234-0.186c0.232,0.235,0.5,0.34,0.809,0.287c0.481-0.083,0.894-0.234,1.253-0.441
			c2.822-1.629,2.355-6.728,5.654-9.293c-0.023,1.757-0.116,3.54,0.661,3.991l0.695,0.404c-0.015-0.009-0.025-0.028-0.039-0.038
			c0.346,0.235,0.87,0.196,1.679-0.271c0.262-0.152,0.554-0.347,0.878-0.591c3.299-2.485,1.335-0.757,2.082-4.218
			c0.946-4.403,0.465-9.446,0.454-13.397C293.596,251.023,294.703,245.383,293.512,243.678z"/>
		<path fill="#F9F3E4" d="M304.69,263.869c2.014-1.163,3.959-4.061,4.919-7.665c1.473-5.533,2.51-13.685,1.375-17.901
			c-0.429-1.589-1.175-2.583-2.085-3.059c0.039,0.02,0.08,0.035,0.118,0.057l-0.695-0.404c-1.049-0.609-2.335-0.494-3.62,0.248
			c-1.992,1.15-3.975,3.819-5.082,7.616l-0.018-0.01c-0.002,0.001-0.106,0.387-0.21,0.773c-0.107,0.388-0.211,0.775-0.209,0.774
			l0.023,0.013c-1.395,5.939-1.935,14.703,0.265,18.044c0.393,0.592,0.83,1.015,1.296,1.286l0.695,0.404
			c-0.084-0.049-0.165-0.108-0.247-0.166C302.269,264.632,303.491,264.561,304.69,263.869z M305.085,249.131
			c0.085-1.281,1.127-11.959,2.55-12.781c0.083-0.048,0.16-0.07,0.236-0.087c1.724,2.924-0.196,20.315-1.108,22.937
			c0,0-0.003,0.008-0.004,0.012l0,0c-0.007,0.017-0.019,0.051-0.03,0.081c-0.02,0.051-0.041,0.084-0.061,0.123
			C305.839,257.345,304.984,250.727,305.085,249.131z"/>
		<path fill="#F9F3E4" d="M320.918,254.499c2.016-1.164,3.961-4.062,4.915-7.663c1.473-5.533,2.51-13.685,1.375-17.901
			c-0.429-1.589-1.175-2.583-2.085-3.058c0.039,0.02,0.08,0.035,0.118,0.057l-0.695-0.404c-1.049-0.61-2.335-0.494-3.62,0.248
			c-1.993,1.15-3.976,3.819-5.082,7.616l-0.018-0.01c-0.002,0.001-0.106,0.387-0.21,0.773c-0.1,0.384-0.204,0.771-0.204,0.771
			l0.019,0.011c-1.396,5.939-1.937,14.706,0.263,18.049c0.393,0.591,0.83,1.014,1.295,1.284l0.695,0.404
			c-0.083-0.048-0.165-0.107-0.246-0.166C318.494,255.265,319.718,255.192,320.918,254.499z M323.661,250.324
			c0.025-0.067,0.033-0.092,0.033-0.092C323.695,250.231,323.686,250.255,323.661,250.324z M321.309,239.764
			c0.085-1.281,1.127-11.959,2.563-12.788c0.082-0.047,0.157-0.069,0.232-0.085c1.715,2.923-0.188,20.268-1.106,22.936
			c-0.002,0.002-0.024,0.053-0.046,0.1c-0.013,0.045-0.028,0.086-0.031,0.093h0c-0.006,0.012-0.012,0.018-0.017,0.029
			C322.072,247.986,321.208,241.361,321.309,239.764z"/>
		<path fill="#F9F3E4" d="M342.132,241.559c-0.004-0.005-0.023-0.015-0.042-0.026c0.002,0.001,0.009,0.004,0.011,0.005l-0.695-0.404
			c-0.111-0.065-0.476-0.224-0.763-0.301l-0.651-0.378c-0.16-0.093-0.345-0.035-0.537,0.076c-0.104,0.06-0.21,0.135-0.316,0.21h0
			c-0.098,0.067-0.195,0.134-0.289,0.188c-0.024,0.014-0.046,0.017-0.07,0.029c-0.119-0.427-0.176-1.178-0.139-2.444
			c0.127-4.22,0.33-8.208,0.167-12.26c-0.07-1.768,0.021-8.497-1.983-9.559c0.015,0.008,0.032,0.01,0.047,0.019l-0.695-0.404
			c-0.419-0.243-0.931-0.234-1.558,0.128c-0.467,0.269-0.997,0.734-1.6,1.437c-1.786,2.075-0.856,5.264-0.9,7.537
			c-0.111,5.356-1.742,17.432,0.311,20.857l0.695,0.404c0.296-0.07,0.592-0.19,0.892-0.363c0.299-0.173,0.601-0.398,0.91-0.677
			c-0.017,0.009,0.261-0.126,0.272-0.132c0.001,0,0.002-0.001,0.002-0.001l-0.009-0.005c0.97-0.514,4-2.188,5.72-3.181
			C341.653,241.885,342.15,241.584,342.132,241.559z M339.835,241.145l-0.44-0.255L339.835,241.145L339.835,241.145z"/>
		<path fill="#F9F3E4" d="M348.788,238.345c0.585-0.338,0.957-0.968,0.465-1.993l0.019,0.011c0,0-0.006-0.01-0.014-0.025
			l-0.017-0.01v0l0.017,0.01c-0.01-0.019-0.024-0.046-0.039-0.075c-0.013-0.023-0.027-0.046-0.037-0.063h0c0,0,0-0.001-0.001-0.002
			c-0.005-0.009-0.01-0.016-0.012-0.021l-0.006-0.004c-0.08-0.131-0.167-0.208-0.257-0.249c0.012,0.005,0.024,0.002,0.036,0.008
			l-0.695-0.404c-0.138-0.08-0.287-0.061-0.439,0.027c-0.728,0.42-1.52,2.407-1.511,2.401c-0.075,0.092-0.051,0.168,0.041,0.221
			l0.695,0.404c0,0-0.001-0.001-0.001-0.001C347.302,238.74,348.161,238.707,348.788,238.345z"/>
		<path fill="#F9F3E4" d="M349.925,213.225c-0.291-0.803-0.615-1.944-1.25-2.283c0.01,0.005,0.02,0.007,0.03,0.012l-0.695-0.404
			c-0.274-0.159-0.607-0.167-1.023,0.073c-0.351,0.202-0.76,0.581-1.242,1.194c-1.433,1.828-0.688,15.229-0.48,17.443
			c0.208,2.177,0.595,3.631,1.114,3.932l0.695,0.404c-0.016-0.009-0.031-0.029-0.046-0.041c0.151,0.11,0.313,0.13,0.486,0.03
			c0.539-0.311,1.18-1.692,1.889-4.474C350.737,223.89,350.794,217.261,349.925,213.225z"/>
		<path fill="#F9F3E4" d="M134.927,318.441l0.695,0.404c2.388,0.393,7.08-1.951,11.781-4.665c1.685-0.973,3.371-1.993,4.952-2.952
			c1.624-0.992,3.143-1.923,4.438-2.67c0.442-0.255,0.858-0.489,1.243-0.697c6.912-3.73,13.837-7.527,20.76-11.524
			c2.692-1.554,5.384-3.139,8.074-4.761c13.942-8.388,27.765-17.121,41.662-25.144c4.521-2.61,9.052-5.147,13.595-7.57
			c17.823-9.506,35.713-19.23,53.598-29.556c18.512-10.688,37.019-22.021,55.433-34.422l-0.695-0.404
			c-2.389-0.34-6.976,1.95-11.602,4.621c-1.654,0.955-3.313,1.959-4.879,2.909c-1.52,0.916-2.956,1.79-4.211,2.515
			c-0.628,0.362-1.21,0.687-1.735,0.961c-9.675,5.108-19.35,10.447-29.037,15.924c-2.772,1.568-5.543,3.152-8.316,4.753
			c-15.583,8.997-31.171,18.491-46.739,28.193c-6.192,3.862-12.382,7.543-18.571,11.116c-9.132,5.272-18.263,10.311-27.393,15.349
			c-9.143,5.052-18.281,10.098-27.421,15.375C158.683,303.051,146.805,310.297,134.927,318.441z"/>
		<path fill="#F9F3E4" d="M139.928,256.131c-0.121-0.07-0.249-0.124-0.383-0.16c-0.559-0.14-2.155,0.545-3.617,1.39
			c-1.146,0.662-2.211,1.421-2.631,1.957c-2.087,2.669-0.978,6.465-0.719,9.114c0.675,6.613,1.325,13.37,2.491,19.627
			c0.7,3.812,2.033,16.808,5.021,18.545l0.695,0.404c-0.036-0.021-0.071-0.051-0.106-0.075c0.271,0.184,0.554,0.283,0.854,0.266
			c0.883-0.051,1.693-0.307,2.439-0.738c6.991-4.036,8.278-23.355,9.44-31.555c0.623,4.107,1.439,8.024,2.408,11.858
			c0.51,2.039,0.829,7.727,2.271,8.765c0.011,0.008,0.022,0.015,0.033,0.021l0.695,0.404c-0.012-0.007-0.023-0.014-0.033-0.021
			c0.593,0.425,3.089-0.345,5.211-1.571c1.043-0.602,1.996-1.314,2.589-2.048c2.137-2.64,2.23-5.492,2.664-8.294
			c0.865-5.502,7.917-47.225,6.236-48.091c0.002,0.001,0.005-0.001,0.007,0.001l-0.044-0.025c0.121-0.032,0.169-0.047,0.177-0.051
			c0.004-0.002-0.009,0-0.02,0.002c0.008-0.002,0.02-0.004,0.021-0.003l-0.695-0.404c-0.003-0.002-0.054,0.009-0.104,0.024
			c-0.064,0.018-0.133,0.04-0.14,0.044l-0.001,0.001l0.002,0.001c-0.066,0.019-0.131,0.046-0.196,0.084
			c-2.959,1.708-4.512,22.2-4.993,25.592c-0.746,5.288-0.679,13.854-2.693,19.585c-1.89-5.297-3.204-11.437-4.29-17.401
			c-0.423-2.322-0.482-9.639-2.401-10.357c0.051,0.019,0.1,0.043,0.149,0.071l-0.695-0.404c-0.048-0.028-0.098-0.051-0.148-0.071
			c-0.476-0.171-1.487,0.219-2.614,0.87c-1.802,1.04-3.902,2.746-4.589,3.883c-2.574,4.241-0.522,11.581-1.392,16.49
			c-0.958,5.411-1.458,10.92-2.947,16.498c-2.042-5.431-3.425-11.975-4.438-18.243c-0.556-3.446-0.024-14.043-2.854-15.595
			c0.012,0.006,0.026,0.009,0.037,0.016L139.928,256.131z"/>
		<path fill="#F9F3E4" d="M197.414,223.643c-0.741-0.431-5.423,1.184-9.093,3.303c-1.808,1.044-3.372,2.211-4.097,3.316
			c-3.216,4.901-1.987,20.255-2.023,25.292c-0.034,5.906,0.109,11.738,0.529,17.353c0.257,3.425,0.275,6.036,1.739,6.887
			l0.695,0.404c-0.029-0.017-0.05-0.046-0.078-0.064c0.705,0.462,1.755,0.497,3.379-0.034c1.06-0.343,3.141-1.269,5.221-2.469
			c2.396-1.384,4.79-3.132,5.609-4.77c0.661-1.315,0.662-1.896,0.321-2.066c0.008,0.004,0.02,0.003,0.027,0.007l-0.695-0.404
			c-0.576-0.335-2.261,0.657-3.361,1.252c-0.026,0.013-0.053,0.028-0.081,0.042c-0.037,0.02-0.076,0.04-0.112,0.059h0
			c-0.513,0.261-0.921,0.346-1.251,0.304c-1.087-1.433-0.074-6.207,0.115-9.015c0.254-3.757-0.035-3.561,1.397-5.837
			c0.15-0.233,0.406-0.417,0.71-0.593c0.179-0.103,0.374-0.203,0.575-0.308c0.213-0.107,0.432-0.217,0.645-0.339
			c0.741-0.428,1.396-1.012,1.392-2.171c-0.021-0.126-0.094-0.208-0.201-0.263c0.007,0.003,0.019,0.003,0.025,0.006l-0.695-0.404
			c-0.632-0.367-2.747,0.478-3.875,0.404c-0.574-1.36,0.513-6.927,0.557-8.807c0.147-5.87,0.305-12.471-1.6-16.822
			c4.273-2.467,5.429-3.607,4.896-3.868c0.007,0.003,0.019,0.004,0.025,0.008L197.414,223.643z M196.784,271.781
			c-0.108,0.059-0.212,0.116-0.313,0.171h0C196.573,271.896,196.676,271.841,196.784,271.781z M196.471,271.952L196.471,271.952
			L196.471,271.952L196.471,271.952z M196.474,271.956c0,0,0.002-0.001,0.002-0.001c-0.003,0.002-0.027,0.014-0.076,0.04
			C196.448,271.97,196.47,271.959,196.474,271.956z M196.165,272.118c-0.224,0.118-0.309,0.162-0.316,0.166
			C195.855,272.282,195.938,272.238,196.165,272.118z"/>
		<path fill="#F9F3E4" d="M217.25,211.947c-0.877-0.509-2.049-0.568-3.617,0.018c-0.53,0.199-1.007,0.422-1.434,0.669
			c-5.152,2.974-3.231,9.277-3.368,14.296c-0.159,6.022-0.067,11.898,0,17.789c0.062,4.125,0.112,8.257,0.3,12.31
			c0.067,1.368-0.317,8.388,0.254,9.35c0.014,0.024,0.032,0.042,0.055,0.055l0.695,0.404c-0.023-0.013-0.041-0.031-0.055-0.055
			c0.101,0.173,0.445,0.053,0.877-0.197c0.864-0.499,2.084-1.512,2.447-1.722h0c0,0,0-0.001,0.001-0.001
			c-0.011,0.006,0.036-0.016,0.104-0.049c1.6-0.746,6.198-2.227,9.566-4.172c1.717-0.991,3.115-2.104,3.632-3.299
			c0.282-0.652,0.249-0.99,0.017-1.118c0.002,0.001,0.007,0.001,0.009,0.002l-0.695-0.404c-0.514-0.299-2.057,0.492-3.334,1.229
			c-0.326,0.188-0.635,0.373-0.904,0.535c-0.264,0.16-0.494,0.3-0.666,0.399c-0.172,0.099-0.285,0.157-0.317,0.154
			c-0.169,0.012-0.323,0.001-0.464-0.027c-1.665-1.768,0.247-8.691,0.517-12.594c0.473-6.884-0.214-13.33-0.321-19.923
			c-0.062-4.606,0.378-11.592-2.658-13.271c0.018,0.01,0.037,0.017,0.055,0.027L217.25,211.947z"/>
		<path fill="#F9F3E4" d="M249.604,194.104c-1.485-0.863-3.734-0.462-5.968,0.827c-0.693,0.4-1.384,0.885-2.05,1.445
			c-5.06,4.241-7.112,10.268-8.495,16.387c-2.147,9.572-3.048,20.781-1.027,28.209l-0.011-0.006c0,0-0.001,0-0.001,0
			c-0.004,0.003,0.021,0.116,0.047,0.235c0.026,0.113,0.053,0.226,0.056,0.228l0.031,0.018c0.738,2.943,2.151,5.565,4.249,6.784
			l0.695,0.404c-0.073-0.042-0.138-0.1-0.209-0.145c1.78,1.142,4.064,1.27,6.86-0.344c0.263-0.152,0.53-0.318,0.801-0.501
			c4.748-3.205,6.033-8.195,7.229-13.539c0.38-1.713,1.67-6.827,0.706-6.956c0.034,0.005,0.071,0.002,0.1,0.019l-0.695-0.404
			c-0.098-0.057-0.228-0.045-0.395,0.052c-0.309,0.179-0.746,0.646-1.347,1.497c-2.541,3.599-1.389,9.978-4.023,13.477
			c-4.372-7.696-3.832-19.9-3.522-31.309c0.092-3.647-0.521-11.381,2.983-13.404c0.397-0.229,0.846-0.385,1.355-0.453
			c0.117-0.016,0.234-0.009,0.349,0.018c1.268,1.133,2.343,4.162,3.083,4.592l0.695,0.404c-0.018-0.01-0.037-0.03-0.055-0.044
			c0.122,0.09,0.237,0.121,0.341,0.061c0.256-0.148,0.456-0.804,0.591-2.252c0.256-2.74-0.53-4.311-1.852-4.972
			c0.057,0.028,0.119,0.046,0.174,0.078L249.604,194.104z"/>
		<path fill="#F9F3E4" d="M259.876,230.557c0.651,1.553,1.482,2.66,2.556,3.285l0.695,0.404c-0.01-0.006-0.018-0.015-0.028-0.02
			c1.32,0.781,3.009,0.832,5.19,0.079c0.999-0.344,1.896-0.748,2.706-1.216c4.081-2.356,5.93-6.322,7.387-12.354
			c2.644-10.964,5.159-27.219,2.423-35.31c-0.738-2.173-1.929-3.812-3.53-4.67c0.057,0.03,0.118,0.053,0.173,0.085l-0.695-0.404
			c-1.763-1.024-4.049-1.066-6.813,0.249c-0.328,0.157-0.642,0.322-0.945,0.497c-4.998,2.886-6.705,8.204-8.292,14.089l-0.005-0.003
			c-0.003,0.002-0.196,0.713-0.389,1.431c-0.194,0.709-0.384,1.416-0.381,1.415l0.04,0.023
			C257.433,208.945,256.851,223.439,259.876,230.557z M270.185,208.376c0.093-2.924,1.826-23.583,4.761-25.278
			c0.1-0.058,0.196-0.084,0.289-0.095c1.811,2.498,1.847,15.662,1.84,16.907c-0.068,7.057-0.076,17.732-3.207,25.874
			c-0.053,0.136-0.073,0.186-0.072,0.186l0.005,0.003c-0.144,0.41-0.293,0.822-0.434,1.23c-0.175-0.047-0.33-0.131-0.491-0.205
			C269.353,224.191,270.017,213.942,270.185,208.376z"/>
		<path fill="#F9F3E4" d="M300.569,165.021c-1.291-0.75-3.31-0.483-5.298,0.665c-0.843,0.486-1.68,1.131-2.454,1.924
			c-4.831,4.935-3.012,32.185-2.929,39.313c0.033,2.62-0.905,10.004,0.21,11.782c0.291,0.463,0.543,0.748,0.792,0.893l0.695,0.404
			c-0.013-0.008-0.026-0.02-0.039-0.028c0.368,0.235,0.723,0.165,1.173-0.095c0.313-0.181,0.673-0.452,1.114-0.771
			c0.453-0.32,0.995-0.705,1.769-1.152c6.694-3.865,5.555-5.944,5.683-13.604c0.13-7.643-0.421-14.893-0.895-22.158
			c-0.169-2.724-1.669-9.1-0.819-13.165c0.946,4.002,2.851,13.5,5.562,15.075l0.695,0.404c-0.054-0.031-0.107-0.073-0.16-0.111
			c0.537,0.378,1.107,0.455,1.708,0.108c0.333-0.193,0.677-0.514,1.029-0.981c1.886-2.495,3.198-11.443,3.909-14.246
			c0.31-1.231,1.381-8.483,2.655-10.829c0.254,2.268-0.904,7.909-0.994,9.355c-0.278,4.177-0.153,8.193-0.104,12.195
			c0.078,5.16,0.357,10.189,0.46,15.32c0.071,2.931-0.757,8.802,0.862,10.361h0c0.019,0.032,0.044,0.058,0.052,0.062l0.695,0.404
			c-0.006-0.004-0.025-0.026-0.041-0.049c0.011,0.006,0.024,0.014,0.035,0.02c-0.017-0.01-0.032-0.021-0.046-0.034
			c0.337,0.311,1.65-0.251,3.195-1.143c2.57-1.484,5.782-3.879,6.213-4.68c1.431-2.667-0.118-10.544-0.237-12.389
			c-0.487-7.026-0.18-14.539-0.566-21.638c-0.233-4.363-0.493-12.133-3.414-13.749c0.016,0.009,0.032,0.015,0.048,0.023
			l-0.695-0.404c-0.843-0.49-1.912-0.461-3.27,0.323c-0.946,0.547-2.035,1.461-3.285,2.821c-3.761,4.1-5.121,22.833-7.476,24.193
			c-0.087,0.05-0.172,0.066-0.257,0.072c-1.757-2.177-3.119-12.314-4.273-13.599c-0.276-0.303-0.621-0.52-1.01-0.671
			c0.139,0.054,0.277,0.109,0.403,0.182L300.569,165.021z"/>
		<path fill="#F9F3E4" d="M349.17,136.027c-0.741-0.43-5.421,1.184-9.094,3.304c-1.81,1.045-3.376,2.213-4.103,3.32
			c-3.203,4.894-1.974,20.248-2.01,25.285c-0.034,5.905,0.109,11.738,0.529,17.353c0.257,3.426,0.275,6.036,1.74,6.887l0.695,0.404
			c-0.029-0.017-0.049-0.046-0.077-0.064c0.705,0.461,1.755,0.496,3.379-0.034c1.06-0.343,3.139-1.267,5.216-2.467
			c2.395-1.382,4.787-3.13,5.614-4.772c0.66-1.314,0.661-1.894,0.319-2.064c0.008,0.004,0.02,0.003,0.028,0.007l-0.695-0.404
			c-0.577-0.335-2.264,0.657-3.357,1.249c-0.027,0.014-0.054,0.028-0.083,0.043c-0.037,0.02-0.076,0.04-0.112,0.059
			c-0.513,0.261-0.921,0.346-1.251,0.304c-1.087-1.433-0.074-6.207,0.115-9.015c0.254-3.757-0.035-3.561,1.397-5.837
			c0.15-0.233,0.406-0.417,0.71-0.593c0.179-0.103,0.374-0.203,0.574-0.308c0.213-0.107,0.432-0.217,0.645-0.339
			c0.741-0.428,1.396-1.012,1.392-2.171c-0.02-0.126-0.094-0.207-0.201-0.262c0.007,0.004,0.019,0.003,0.025,0.006l-0.695-0.404
			c-0.633-0.368-2.756,0.483-3.888,0.41c-0.562-1.367,0.525-6.934,0.569-8.813c0.135-5.862,0.305-12.47-1.612-16.815
			c4.278-2.47,5.436-3.612,4.904-3.873c0.007,0.003,0.019,0.004,0.025,0.008L349.17,136.027z"/>
		<polygon fill="#F9F3E4" points="406.097,34.31 70.657,227.976 74.829,230.401 410.269,36.734 		"/>
		<polygon fill="#F9F3E4" points="82.874,442.465 82.896,447.846 400.501,263.71 395.807,260.875 		"/>
	</g>
</g>
</svg>
